<?xml version="1.0" standalone="no"?>
<!DOCTYPE svg PUBLIC "-//W3C//DTD SVG 20010904//EN"
 "http://www.w3.org/TR/2001/REC-SVG-20010904/DTD/svg10.dtd">
<svg version="1.0" xmlns="http://www.w3.org/2000/svg"
 width="477.000000pt" height="477.000000pt" viewBox="0 0 477.000000 477.000000"
 preserveAspectRatio="xMidYMid meet">
<metadata>
Created by potrace 1.14, written by Peter Selinger 2001-2017
</metadata>
<g transform="translate(0.000000,477.000000) scale(0.100000,-0.100000)"
fill="#000000" stroke="none">
<path d="M2577 4043 c-8 -21 -25 -64 -37 -95 -43 -111 -447 -751 -471 -746 -6
2 -14 -3 -17 -11 -3 -9 0 -11 9 -6 7 5 3 -5 -8 -21 -182 -249 -221 -299 -233
-299 -7 0 -15 -6 -18 -14 -3 -10 0 -11 9 -5 8 4 -23 -39 -67 -96 -44 -58 -87
-105 -94 -105 -7 0 -15 -6 -18 -14 -3 -9 0 -11 9 -5 14 8 -75 -109 -95 -125
-6 -5 -15 -9 -21 -9 -5 0 -11 -6 -14 -13 -2 -8 1 -9 10 -3 8 4 -5 -15 -29 -44
-24 -28 -48 -50 -54 -49 -6 1 -13 -4 -16 -12 -3 -9 0 -11 9 -6 8 5 5 -3 -7
-16 -11 -13 -58 -68 -103 -121 -45 -54 -87 -97 -93 -95 -6 1 -13 -4 -16 -12
-3 -10 0 -11 9 -5 8 4 -21 -33 -64 -84 -43 -50 -83 -91 -89 -89 -6 1 -13 -4
-16 -12 -3 -10 0 -11 9 -5 8 4 -10 -20 -39 -54 -30 -34 -58 -60 -64 -59 -6 1
-13 -4 -16 -12 -3 -10 0 -11 9 -5 21 12 -184 -227 -280 -328 -46 -48 -86 -86
-90 -83 -9 5 -144 -129 -137 -136 3 -3 -20 -30 -51 -60 -32 -30 -49 -44 -39
-31 11 12 15 22 9 22 -12 0 -55 -45 -48 -51 2 -3 -14 -23 -37 -45 -23 -21 -36
-31 -29 -21 7 9 9 17 4 17 -13 0 -45 -35 -38 -42 3 -3 -5 -13 -17 -24 -12 -10
-18 -13 -13 -5 5 9 3 12 -6 9 -8 -3 -13 -10 -12 -16 1 -5 -5 -16 -14 -24 -14
-11 -16 -11 -9 1 6 9 4 12 -5 9 -8 -3 -14 -10 -14 -15 0 -6 -4 -15 -9 -20 -5
-5 -6 -2 -1 6 5 9 4 12 -4 10 -7 -3 -11 -7 -9 -10 2 -3 -14 -25 -34 -48 -21
-22 -38 -48 -38 -56 0 -21 58 -19 118 4 102 40 587 139 882 180 627 87 1296
94 2095 21 193 -17 202 -17 253 0 29 10 49 14 46 8 -6 -9 11 -6 53 9 6 3 13
-4 16 -14 3 -10 6 -2 7 17 2 39 5 34 15 -24 6 -38 7 -38 43 -31 20 4 46 7 57
8 11 0 23 5 27 11 4 5 10 -2 14 -18 6 -27 8 -27 68 -24 33 2 64 8 68 13 4 6
10 -5 14 -22 6 -32 8 -33 53 -31 l46 1 -45 7 -45 7 43 3 c23 2 48 3 55 4 6 1
12 -8 12 -19 0 -17 7 -20 50 -21 l50 -2 -45 8 -45 7 43 1 c23 1 45 2 50 2 4 0
7 -6 7 -12 0 -9 21 -14 63 -16 48 -2 62 0 56 9 -4 8 -3 9 4 5 14 -9 253 -46
294 -46 25 0 28 3 25 27 -2 15 -9 29 -17 31 -8 3 -10 0 -5 -8 5 -9 4 -11 -4
-6 -6 4 -9 12 -5 17 7 12 -58 40 -88 36 -14 -1 -22 3 -21 11 2 6 -4 12 -13 12
-8 0 -13 -4 -9 -10 3 -5 -8 -5 -26 2 -23 8 -28 13 -17 20 9 7 7 8 -9 5 -27 -6
-429 130 -425 143 1 6 -5 10 -14 10 -8 0 -13 -4 -10 -8 3 -5 -49 6 -115 24
-249 69 -492 109 -869 144 -202 20 -271 21 -680 17 -430 -4 -470 -6 -724 -35
-273 -32 -373 -47 -551 -82 -55 -11 -110 -22 -123 -25 -12 -2 -28 -7 -35 -11
-14 -8 -9 -4 43 41 21 19 28 21 16 8 -19 -23 -19 -23 3 -23 12 0 20 4 17 9 -3
5 1 14 9 21 8 7 13 16 10 19 -2 4 17 28 43 52 25 24 38 34 28 22 -11 -13 -15
-23 -9 -23 12 0 55 45 48 51 -2 3 34 43 80 89 47 47 85 81 85 76 0 -5 9 -1 20
9 28 25 25 43 -2 19 -13 -10 8 14 46 54 39 39 72 69 75 67 6 -7 31 15 31 27 0
6 -8 4 -17 -3 -10 -8 36 48 101 123 65 75 123 136 129 135 5 -1 12 4 15 12 3
9 0 11 -8 6 -7 -4 43 60 110 143 67 83 127 150 132 149 6 -1 13 4 16 12 3 9 0
11 -9 5 -7 -4 23 39 68 97 44 57 86 104 93 104 8 0 15 6 18 14 3 9 0 11 -8 6
-7 -4 28 46 77 111 49 65 107 145 128 176 20 32 42 55 48 51 6 -4 8 0 4 9 -7
20 302 483 322 483 8 0 16 6 19 14 3 9 0 11 -9 5 -12 -7 -12 -5 -1 9 8 9 19
15 24 14 6 -1 13 4 16 12 3 9 0 11 -9 6 -8 -5 -5 1 5 13 15 17 22 19 33 11 16
-14 17 3 1 19 -7 7 -8 12 -3 12 6 0 37 -53 70 -117 33 -64 84 -157 114 -207
30 -50 54 -99 53 -109 0 -9 3 -15 8 -12 5 3 31 -27 56 -67 242 -374 424 -633
600 -855 42 -53 71 -92 64 -88 -8 5 -11 3 -8 -6 3 -8 10 -13 15 -12 6 1 25
-14 44 -35 19 -20 26 -30 17 -23 -22 16 -24 -1 -3 -19 8 -7 15 -9 15 -4 0 5
97 -88 215 -206 118 -118 212 -216 209 -219 -6 -6 57 -71 70 -71 5 0 -3 15
-19 33 -17 17 -2 5 32 -27 35 -33 60 -62 58 -65 -7 -6 26 -41 38 -41 5 0 3 8
-4 17 -7 10 0 7 16 -7 17 -14 35 -28 40 -33 6 -4 1 -5 -10 -2 -20 7 -20 6 -1
-9 24 -19 40 -21 30 -4 -5 10 -3 10 7 0 8 -7 14 -18 14 -24 0 -6 6 -13 14 -16
9 -3 11 0 6 9 -5 8 1 6 13 -5 12 -10 20 -23 19 -28 -1 -6 4 -13 12 -16 9 -3
11 0 6 9 -5 8 -4 11 1 6 5 -5 9 -14 9 -20 0 -7 9 -13 20 -15 16 -3 17 -1 5 7
-10 7 -11 11 -2 11 22 0 13 57 -14 89 -14 17 -22 31 -18 31 4 0 -1 9 -11 20
-25 27 -42 25 -20 -2 10 -13 -8 4 -40 37 -135 141 -410 488 -365 460 8 -5 11
-3 8 6 -3 8 -10 13 -16 12 -6 -2 -57 59 -114 135 -129 170 -155 208 -139 197
9 -5 12 -3 9 6 -3 8 -10 13 -17 12 -11 -3 -76 90 -321 467 -211 325 -352 560
-422 709 -119 251 -243 552 -268 649 -9 34 -15 42 -34 42 -17 0 -27 -9 -39
-37z m-1997 -2676 c0 -2 -19 -21 -42 -42 l-43 -40 40 43 c36 39 45 47 45 39z
m3820 -387 c8 -5 11 -10 5 -10 -5 0 -17 5 -25 10 -8 5 -10 10 -5 10 6 0 17 -5
25 -10z m-277 -37 c-13 -2 -35 -2 -50 0 -16 2 -5 4 22 4 28 0 40 -2 28 -4z"/>
<path d="M2583 2514 c3 -5 -31 -8 -77 -6 -61 3 -97 -2 -139 -16 -31 -10 -54
-15 -51 -10 7 11 -3 10 -27 -3 -11 -5 -17 -14 -14 -18 2 -5 -7 -17 -21 -26
-15 -9 -23 -12 -19 -5 5 8 3 11 -4 9 -7 -3 -11 -7 -9 -11 2 -3 -25 -36 -60
-72 -41 -42 -74 -89 -94 -133 -28 -60 -32 -79 -32 -158 -1 -103 26 -205 70
-270 15 -22 19 -33 10 -26 -25 21 -19 -3 7 -27 26 -24 43 -29 31 -9 -5 8 -3 8
9 -2 9 -7 14 -17 12 -22 -3 -4 3 -13 14 -18 25 -14 34 -14 26 0 -4 6 12 1 35
-11 92 -47 259 -63 374 -36 33 8 65 12 72 9 16 -6 76 25 69 37 -3 5 0 12 6 16
8 5 9 3 4 -6 -5 -8 -3 -11 6 -8 8 3 14 10 14 16 0 6 7 17 15 24 12 11 12 11 1
-4 -16 -22 1 -24 19 -3 7 8 9 15 6 15 -4 0 9 19 28 43 47 58 85 142 97 219 10
60 9 64 -13 82 -13 10 -22 23 -20 29 2 5 -4 7 -13 4 -8 -4 -22 -4 -31 0 -13 5
-13 8 -2 15 9 7 5 8 -12 4 -14 -3 -48 1 -74 9 -78 24 -83 22 -90 -36 -9 -66
-55 -167 -91 -199 -16 -14 -25 -19 -21 -12 9 14 -3 16 -24 2 -13 -9 -13 -10 0
-10 11 0 10 -4 -5 -12 -10 -6 -44 -11 -75 -11 -31 0 -65 5 -75 11 -15 8 -16
12 -5 12 9 0 5 6 -10 15 -31 18 -43 19 -34 3 4 -7 -5 -2 -21 12 -59 53 -71
135 -30 216 25 51 67 98 88 100 7 0 21 2 32 3 16 1 17 3 6 10 -32 21 78 33
157 17 l42 -8 0 34 c-1 55 -20 171 -31 184 -5 6 -8 17 -7 24 2 7 -3 15 -11 18
-8 2 -11 1 -8 -4z m142 -844 c-3 -5 -12 -10 -18 -10 -7 0 -6 4 3 10 19 12 23
12 15 0z"/>
<path d="M2753 2493 c3 -5 -4 -9 -16 -9 -17 1 -23 -6 -28 -39 -8 -43 4 -155
21 -199 5 -14 6 -26 2 -26 -4 0 2 -7 12 -15 22 -16 50 -20 42 -6 -4 5 10 4 30
-2 28 -8 32 -12 18 -17 -9 -4 16 -6 57 -6 68 1 74 3 77 23 5 33 -54 140 -108
197 -27 28 -48 55 -48 61 0 5 -6 11 -13 14 -8 2 -9 -1 -3 -10 7 -12 5 -12 -9
-1 -9 8 -15 19 -14 24 1 6 -4 13 -12 16 -8 2 -11 0 -8 -5z"/>
</g>
</svg>
